<?xml version="1.0" encoding="UTF-8" standalone="no"?>
<svg
   xmlns:dc="http://purl.org/dc/elements/1.1/"
   xmlns:cc="http://creativecommons.org/ns#"
   xmlns:rdf="http://www.w3.org/1999/02/22-rdf-syntax-ns#"
   xmlns:svg="http://www.w3.org/2000/svg"
   xmlns="http://www.w3.org/2000/svg"
   version="1.1"
   id="svg2"
   width="40"
   height="39.013729">
  <metadata
     id="metadata10">
    <rdf:RDF>
      <cc:Work
         rdf:about="">
        <dc:format>image/svg+xml</dc:format>
        <dc:type
           rdf:resource="http://purl.org/dc/dcmitype/StillImage" />
        <dc:title></dc:title>
      </cc:Work>
    </rdf:RDF>
  </metadata>
  <defs
     id="defs8" />
  <path
     id="path4"
     d="M 20,0 C 8.95508,0 0,8.9550667 0,19.999986 0,28.83788 5.73,36.333 13.677973,38.977026 c 0.99976,0.18312 1.36476,-0.434573 1.36476,-0.96192 0,-0.476093 -0.01827,-2.0532 -0.02813,-3.72312 -5.56152,1.208467 -6.7370667,-2.3584 -6.7370667,-2.3584 C 7.3669067,29.624013 6.0570667,29.008773 6.0570667,29.008773 4.23944,27.768546 6.19496,27.79296 6.19496,27.79296 8.203,27.932093 9.2601867,29.853506 9.2601867,29.853506 11.04488,32.910146 13.9428,32.02636 15.080507,31.513666 15.262293,30.2246 15.77988,29.340813 16.35004,28.84276 11.910347,28.337413 7.23996,26.62108 7.23996,18.957493 7.23996,16.772413 8.02,14.990226 9.2968267,13.590067 9.09296,13.082253 8.40448,11.047347 9.49456,8.29468 c 0,0 1.677267,-0.5371066 5.50048,2.050787 1.594213,-0.4455469 3.304453,-0.6652799 5.00488,-0.6726139 1.699213,0.008 3.410613,0.229494 5.007333,0.6750269 3.815947,-2.5903066 5.495627,-2.0507733 5.495627,-2.0507733 1.09376,2.7551203 0.40528,4.7875733 0.2002,5.2929603 1.28172,1.400159 2.055667,3.182386 2.055667,5.367426 0,7.68312 -4.677734,9.375 -9.13328,9.870627 0.720226,0.620106 1.357413,1.835933 1.357413,3.701173 0,2.67336 -0.02693,4.829093 -0.02693,5.48828 0,0.532227 0.363746,1.15476 1.37696,0.959453 C 34.27492,36.32812 40,28.833 40,19.999986 40,8.9550667 31.04492,0 20,0 Z" />
</svg>
